:SAMPLES-PER-SECOND 30
:FULLY-SPECIFIED
:DEGREES
33
root  75.2467 40.5047 -0.633207 -170.043 -86.8515 169.982
RightUpLeg  1.75133 -8.00536 -5.8871
RightLeg  2.72589 -2.56007 3.22133
RightFoot  -2.83169 -0.0534036 0.464329
RightToes  5.82063e-011 0 -3.6325e-017
Spine  -0.289771 -0.0944401 2.12244
Spine1  4.48837 0.479801 -2.76176
HEad  -6.07212 1.02363 -1.28274
LeftShoulder1  0.840913 -2.55486 -6.10826
LeftArm  -13.7296 8.33857 1.56338
LeftForeArm  10.3673 -2.2895 -3.24348
LeftHand  -0.244104 0.0205437 5.32207
RightShoulder  0.674907 1.20268 6.71169
RightArm  -17.5878 1.56803 -1.94946
RightForeArm  0.739391 0.430656 4.15443
RightHand  -0.807272 1.68186 -13.3843
LeftUpLeg  2.00194 5.25645 3.70854
LeftLeg  0.520288 11.1496 -3.8743
LeftFoot  -2.40686 0.149897 -1.72256
LeftToes  4.36525e-011 -9.98543e-011 1.0027e-011
34
root  75.2387 40.5049 -0.639536 -170.411 -86.9028 170.326
RightUpLeg  1.8323 -8.01308 -5.87084
RightLeg  2.66743 -2.59574 3.25506
RightFoot  -2.8244 -0.0533729 0.463853
RightToes  5.82063e-011 0 -3.6325e-017
Spine  -0.587576 -0.175363 2.04009
Spine1  4.98754 0.36222 -2.58275
HEad  -6.29493 1.13885 -1.39824
LeftShoulder1  0.847453 -2.50758 -6.3511
LeftArm  -13.7361 8.39942 1.73249
LeftForeArm  10.3145 -2.44736 -3.24956
LeftHand  -0.244104 0.0205437 5.32207
RightShoulder  0.687626 1.35524 6.50274
RightArm  -17.6892 1.57972 -1.81887
RightForeArm  0.699863 0.359962 4.11914
RightHand  -0.813662 1.7329 -13.3958
LeftUpLeg  1.99587 5.25242 3.7345
LeftLeg  0.599957 11.1001 -3.8251
LeftFoot  -2.43857 0.150309 -1.72897
LeftToes  4.36525e-011 -9.98543e-011 1.0027e-011
35
root  75.2341 40.5051 -0.644839 -170.87 -86.9335 170.795
RightUpLeg  1.85101 -8.03113 -5.8519
RightLeg  2.63545 -2.60378 3.29962
RightFoot  -2.79964 -0.052075 0.443706
RightToes  5.82063e-011 0 -3.6325e-017
Spine  -1.20557 -0.288129 2.0479
Spine1  5.90254 0.234277 -2.49737
HEad  -6.62234 1.27002 -1.48419
LeftShoulder1  0.856984 -2.46783 -6.63303
LeftArm  -13.9662 8.3984 1.94577
LeftForeArm  10.3922 -2.33917 -3.13321
LeftHand  -0.244104 0.0205437 5.32207
RightShoulder  0.712825 1.62019 6.23161
RightArm  -17.9353 1.61377 -1.60619
RightForeArm  0.742864 0.197933 4.02642
RightHand  -0.827432 1.86101 -13.3863
LeftUpLeg  1.96465 5.26523 3.77387
LeftLeg  0.650931 11.0655 -3.80683
LeftFoot  -2.4677 0.15264 -1.76521
LeftToes  4.36525e-011 -9.98543e-011 1.0027e-011
36
root  75.2346 40.5052 -0.650761 -170.998 -86.9431 170.957
RightUpLeg  1.82444 -8.04199 -5.83874
RightLeg  2.62115 -2.60361 3.32332
RightFoot  -2.78796 -0.0508975 0.425429
RightToes  5.82063e-011 0 -3.6325e-017
Spine  -1.41973 -0.3375 2.01681
Spine1  6.21209 0.170749 -2.42674
HEad  -6.67989 1.31196 -1.46666
LeftShoulder1  0.86155 -2.4627 -6.73207
LeftArm  -14.2937 8.30554 1.99773
LeftForeArm  10.7286 -1.98395 -2.95229
LeftHand  -0.244104 0.0205437 5.32207
RightShoulder  0.717986 1.69285 6.1255
RightArm  -18.0275 1.65094 -1.516
RightForeArm  0.78451 0.150127 3.99499
RightHand  -0.835738 1.93397 -13.3951
LeftUpLeg  1.91696 5.27693 3.79712
LeftLeg  0.674837 11.0512 -3.80771
LeftFoot  -2.47788 0.155923 -1.81625
LeftToes  4.36525e-011 -9.98543e-011 1.0027e-011
37
root  75.2357 40.5053 -0.65594 -170.827 -86.9333 170.809
RightUpLeg  1.80271 -8.04445 -5.83725
RightLeg  2.61119 -2.597 3.3257
RightFoot  -2.79408 -0.0508281 0.424351
RightToes  5.82063e-011 0 -3.6325e-017
Spine  -1.27756 -0.328612 1.82749
Spine1  6.04707 0.118392 -2.14607
HEad  -6.54463 1.32521 -1.49324
LeftShoulder1  0.858449 -2.39335 -6.86242
LeftArm  -14.5239 8.17141 1.98295
LeftForeArm  11.0612 -1.71472 -2.8304
LeftHand  -0.244104 0.0205437 5.32207
RightShoulder  0.695493 1.57672 5.98151
RightArm  -17.9749 1.71028 -1.44911
RightForeArm  0.735463 0.197247 4.02756
RightHand  -0.833153 1.89609 -13.4254
LeftUpLeg  1.8877 5.28136 3.79879
LeftLeg  0.683223 11.0508 -3.81333
LeftFoot  -2.47128 0.156889 -1.83054
LeftToes  4.36525e-011 -9.98543e-011 1.0027e-011
38
root  75.2335 40.5053 -0.658731 -170.789 -86.9028 170.776
RightUpLeg  1.79497 -8.04544 -5.83339
RightLeg  2.61306 -2.57707 3.32475
RightFoot  -2.79075 -0.0513152 0.431913
RightToes  5.82063e-011 0 -3.6325e-017
Spine  -1.32428 -0.344332 1.57907
Spine1  6.19502 0.00144875 -1.688
HEad  -6.57512 1.43285 -1.69881
LeftShoulder1  0.848711 -2.18267 -7.26931
LeftArm  -14.6021 8.05807 2.10944
LeftForeArm  11.1183 -1.73495 -2.8133
LeftHand  -0.244104 0.0205437 5.32207
RightShoulder  0.667578 1.52235 5.52483
RightArm  -18.0252 1.78798 -1.16771
RightForeArm  0.612896 0.183431 4.02637
RightHand  -0.826589 1.80879 -13.4657
LeftUpLeg  1.89486 5.28862 3.80316
LeftLeg  0.671383 11.0652 -3.82386
LeftFoot  -2.46094 0.15516 -1.7996
LeftToes  4.36525e-011 -9.98543e-011 1.0027e-011
